<svg width="30" height="31" viewBox="0 0 30 31" fill="none" xmlns="http://www.w3.org/2000/svg">
<path d="M21.25 2.52051H8.75C5.29822 2.52051 2.5 5.31873 2.5 8.77051V21.2705C2.5 24.7223 5.29822 27.5205 8.75 27.5205H21.25C24.7018 27.5205 27.5 24.7223 27.5 21.2705V8.77051C27.5 5.31873 24.7018 2.52051 21.25 2.52051Z" stroke="#02897A" stroke-width="2" stroke-linecap="round" stroke-linejoin="round"/>
<path d="M19.9996 14.2329C20.1539 15.2732 19.9762 16.3357 19.4918 17.2692C19.0075 18.2027 18.2411 18.9597 17.3017 19.4325C16.3623 19.9053 15.2977 20.0699 14.2594 19.9028C13.221 19.7357 12.2618 19.2455 11.5182 18.5018C10.7745 17.7582 10.2843 16.799 10.1172 15.7607C9.95014 14.7223 10.1147 13.6578 10.5875 12.7184C11.0604 11.779 11.8174 11.0126 12.7509 10.5282C13.6844 10.0438 14.7468 9.86613 15.7871 10.0204C16.8483 10.1778 17.8307 10.6722 18.5893 11.4308C19.3478 12.1893 19.8423 13.1717 19.9996 14.2329Z" stroke="#02897A" stroke-width="2" stroke-linecap="round" stroke-linejoin="round"/>
<path d="M21.875 8.14551H21.8876" stroke="#02897A" stroke-width="2" stroke-linecap="round" stroke-linejoin="round"/>
</svg>
