<svg width="150" height="150" viewBox="0 0 150 150" fill="none" xmlns="http://www.w3.org/2000/svg">
<rect width="150" height="150" rx="75" fill="#F2F6FF"/>
<g filter="url(#filter0_b_42_146)">
<path d="M76.1403 47.3411L55.6853 53.1889C48.2312 55.3199 45.1394 61.033 47.1365 68.9854L52.6117 90.787C54.6088 98.7394 59.9637 102.038 67.4178 99.9066L87.8729 94.0588C95.327 91.9277 98.3994 86.2202 96.4022 78.2678L90.927 56.4662C88.9299 48.5139 83.5945 45.21 76.1403 47.3411Z" fill="url(#paint0_linear_42_146)"/>
</g>
<g opacity="0.5" filter="url(#filter1_f_42_146)">
<path d="M86.2195 75.9124L82.5049 60.8997C81.1575 55.4542 77.7853 53.0126 73.3514 54.2615L58.334 58.4913C53.8273 59.7607 52.0822 63.6437 53.4296 69.0892L57.1442 84.1019C58.5133 89.6351 61.8051 92.0036 66.3118 90.7343L81.3292 86.5044C85.7632 85.2555 87.5885 81.4456 86.2195 75.9124Z" fill="#11B5E4"/>
</g>
<g filter="url(#filter2_b_42_146)">
<mask id="path-4-outside-1_42_146" maskUnits="userSpaceOnUse" x="59.6602" y="56.626" width="48" height="51" fill="black">
<rect fill="white" x="59.6602" y="56.626" width="48" height="51"/>
<path d="M93.9231 57.626H72.7484C65.0321 57.626 60.6602 62.2906 60.6602 70.5235V93.0942C60.6602 101.327 65.0321 105.992 72.7484 105.992H93.9231C101.639 105.992 105.991 101.327 105.991 93.0942V70.5235C105.991 62.2906 101.639 57.626 93.9231 57.626"/>
</mask>
<path d="M93.9231 57.626H72.7484C65.0321 57.626 60.6602 62.2906 60.6602 70.5235V93.0942C60.6602 101.327 65.0321 105.992 72.7484 105.992H93.9231C101.639 105.992 105.991 101.327 105.991 93.0942V70.5235C105.991 62.2906 101.639 57.626 93.9231 57.626" fill="#00ACDD"/>
<path d="M93.9231 58.626C94.4754 58.626 94.9231 58.1783 94.9231 57.626C94.9231 57.0737 94.4754 56.626 93.9231 56.626V58.626ZM93.9231 56.626C93.3708 56.626 92.9231 57.0737 92.9231 57.626C92.9231 58.1783 93.3708 58.626 93.9231 58.626V56.626ZM93.9231 56.626H72.7484V58.626H93.9231V56.626ZM72.7484 56.626C68.6858 56.626 65.3718 57.8595 63.081 60.3035C60.7993 62.7381 59.6602 66.2381 59.6602 70.5235H61.6602C61.6602 66.576 62.707 63.6272 64.5403 61.6712C66.3646 59.7248 69.0947 58.626 72.7484 58.626V56.626ZM59.6602 70.5235V93.0942H61.6602V70.5235H59.6602ZM59.6602 93.0942C59.6602 97.3796 60.7993 100.88 63.081 103.314C65.3718 105.758 68.6858 106.992 72.7484 106.992V104.992C69.0947 104.992 66.3646 103.893 64.5403 101.946C62.707 99.9904 61.6602 97.0417 61.6602 93.0942H59.6602ZM72.7484 106.992H93.9231V104.992H72.7484V106.992ZM93.9231 106.992C97.9858 106.992 101.295 105.758 103.581 103.313C105.858 100.878 106.991 97.3784 106.991 93.0942H104.991C104.991 97.0428 103.949 99.9917 102.12 101.947C100.301 103.893 97.5767 104.992 93.9231 104.992V106.992ZM106.991 93.0942V70.5235H104.991V93.0942H106.991ZM106.991 70.5235C106.991 66.2392 105.858 62.7393 103.581 60.3044C101.295 57.8596 97.9858 56.626 93.9231 56.626V58.626C97.5767 58.626 100.301 59.7247 102.12 61.6703C103.949 63.626 104.991 66.5748 104.991 70.5235H106.991Z" fill="url(#paint1_linear_42_146)" mask="url(#path-4-outside-1_42_146)"/>
</g>
<g filter="url(#filter3_bd_42_146)">
<mask id="path-6-inside-2_42_146" fill="white">
<path fill-rule="evenodd" clip-rule="evenodd" d="M83.4047 67.5142C82.3772 67.5142 81.531 68.417 81.531 69.5348V94.0831C81.531 95.1794 82.3772 96.0822 83.4047 96.0822C84.4524 96.0822 85.2985 95.1794 85.2985 94.0831V69.5348C85.2985 68.417 84.4524 67.5142 83.4047 67.5142ZM72.8278 75.4468C71.8003 75.4468 70.9541 76.3497 70.9541 77.4675V94.0838C70.9541 95.1801 71.8003 96.0829 72.8278 96.0829C73.8754 96.0829 74.7216 95.1801 74.7216 94.0838V77.4675C74.7216 76.3497 73.8754 75.4468 72.8278 75.4468ZM91.9478 86.2376C91.9478 85.1198 92.794 84.217 93.8416 84.217C94.8691 84.217 95.7153 85.1198 95.7153 86.2376V94.0836C95.7153 95.1799 94.8691 96.0827 93.8215 96.0827C92.794 96.0827 91.9478 95.1799 91.9478 94.0836V86.2376Z"/>
</mask>
<path fill-rule="evenodd" clip-rule="evenodd" d="M83.4047 67.5142C82.3772 67.5142 81.531 68.417 81.531 69.5348V94.0831C81.531 95.1794 82.3772 96.0822 83.4047 96.0822C84.4524 96.0822 85.2985 95.1794 85.2985 94.0831V69.5348C85.2985 68.417 84.4524 67.5142 83.4047 67.5142ZM72.8278 75.4468C71.8003 75.4468 70.9541 76.3497 70.9541 77.4675V94.0838C70.9541 95.1801 71.8003 96.0829 72.8278 96.0829C73.8754 96.0829 74.7216 95.1801 74.7216 94.0838V77.4675C74.7216 76.3497 73.8754 75.4468 72.8278 75.4468ZM91.9478 86.2376C91.9478 85.1198 92.794 84.217 93.8416 84.217C94.8691 84.217 95.7153 85.1198 95.7153 86.2376V94.0836C95.7153 95.1799 94.8691 96.0827 93.8215 96.0827C92.794 96.0827 91.9478 95.1799 91.9478 94.0836V86.2376Z" fill="url(#paint2_linear_42_146)"/>
<path d="M81.931 69.5348C81.931 68.6102 82.6248 67.9142 83.4047 67.9142V67.1142C82.1296 67.1142 81.131 68.2238 81.131 69.5348H81.931ZM81.931 94.0831V69.5348H81.131V94.0831H81.931ZM83.4047 95.6822C82.6221 95.6822 81.931 94.9833 81.931 94.0831H81.131C81.131 95.3755 82.1323 96.4822 83.4047 96.4822V95.6822ZM84.8985 94.0831C84.8985 94.9804 84.2101 95.6822 83.4047 95.6822V96.4822C84.6946 96.4822 85.6985 95.3783 85.6985 94.0831H84.8985ZM84.8985 69.5348V94.0831H85.6985V69.5348H84.8985ZM83.4047 67.9142C84.2074 67.9142 84.8985 68.6131 84.8985 69.5348H85.6985C85.6985 68.2209 84.6973 67.1142 83.4047 67.1142V67.9142ZM71.3541 77.4675C71.3541 76.5429 72.0479 75.8468 72.8278 75.8468V75.0468C71.5527 75.0468 70.5541 76.1564 70.5541 77.4675H71.3541ZM71.3541 94.0838V77.4675H70.5541V94.0838H71.3541ZM72.8278 95.6829C72.0452 95.6829 71.3541 94.984 71.3541 94.0838H70.5541C70.5541 95.3762 71.5553 96.4829 72.8278 96.4829V95.6829ZM74.3216 94.0838C74.3216 94.9811 73.6332 95.6829 72.8278 95.6829V96.4829C74.1177 96.4829 75.1216 95.379 75.1216 94.0838H74.3216ZM74.3216 77.4675V94.0838H75.1216V77.4675H74.3216ZM72.8278 75.8468C73.6305 75.8468 74.3216 76.5458 74.3216 77.4675H75.1216C75.1216 76.1536 74.1204 75.0468 72.8278 75.0468V75.8468ZM93.8416 83.817C92.549 83.817 91.5478 84.9237 91.5478 86.2376H92.3478C92.3478 85.3159 93.0389 84.617 93.8416 84.617V83.817ZM96.1153 86.2376C96.1153 84.9266 95.1167 83.817 93.8416 83.817V84.617C94.6215 84.617 95.3153 85.313 95.3153 86.2376H96.1153ZM96.1153 94.0836V86.2376H95.3153V94.0836H96.1153ZM93.8215 96.4827C95.1114 96.4827 96.1153 95.3789 96.1153 94.0836H95.3153C95.3153 94.9809 94.6269 95.6827 93.8215 95.6827V96.4827ZM91.5478 94.0836C91.5478 95.376 92.549 96.4827 93.8215 96.4827V95.6827C93.0389 95.6827 92.3478 94.9838 92.3478 94.0836H91.5478ZM91.5478 86.2376V94.0836H92.3478V86.2376H91.5478Z" fill="url(#paint3_linear_42_146)" mask="url(#path-6-inside-2_42_146)"/>
</g>
<defs>
<filter id="filter0_b_42_146" x="33.543" y="33.7085" width="76.4551" height="79.8315" filterUnits="userSpaceOnUse" color-interpolation-filters="sRGB">
<feFlood flood-opacity="0" result="BackgroundImageFix"/>
<feGaussianBlur in="BackgroundImageFix" stdDeviation="6.5"/>
<feComposite in2="SourceAlpha" operator="in" result="effect1_backgroundBlur_42_146"/>
<feBlend mode="normal" in="SourceGraphic" in2="effect1_backgroundBlur_42_146" result="shape"/>
</filter>
<filter id="filter1_f_42_146" x="39.9863" y="40.9409" width="59.6787" height="63.1279" filterUnits="userSpaceOnUse" color-interpolation-filters="sRGB">
<feFlood flood-opacity="0" result="BackgroundImageFix"/>
<feBlend mode="normal" in="SourceGraphic" in2="BackgroundImageFix" result="shape"/>
<feGaussianBlur stdDeviation="6.5" result="effect1_foregroundBlur_42_146"/>
</filter>
<filter id="filter2_b_42_146" x="44.6602" y="41.626" width="77.3311" height="80.3657" filterUnits="userSpaceOnUse" color-interpolation-filters="sRGB">
<feFlood flood-opacity="0" result="BackgroundImageFix"/>
<feGaussianBlur in="BackgroundImageFix" stdDeviation="7.5"/>
<feComposite in2="SourceAlpha" operator="in" result="effect1_backgroundBlur_42_146"/>
<feBlend mode="normal" in="SourceGraphic" in2="effect1_backgroundBlur_42_146" result="shape"/>
</filter>
<filter id="filter3_bd_42_146" x="55.9541" y="52.5142" width="54.7607" height="58.5688" filterUnits="userSpaceOnUse" color-interpolation-filters="sRGB">
<feFlood flood-opacity="0" result="BackgroundImageFix"/>
<feGaussianBlur in="BackgroundImageFix" stdDeviation="7.5"/>
<feComposite in2="SourceAlpha" operator="in" result="effect1_backgroundBlur_42_146"/>
<feColorMatrix in="SourceAlpha" type="matrix" values="0 0 0 0 0 0 0 0 0 0 0 0 0 0 0 0 0 0 127 0" result="hardAlpha"/>
<feOffset dx="5" dy="5"/>
<feGaussianBlur stdDeviation="5"/>
<feColorMatrix type="matrix" values="0 0 0 0 1 0 0 0 0 0.447059 0 0 0 0 0.368627 0 0 0 0.5 0"/>
<feBlend mode="normal" in2="effect1_backgroundBlur_42_146" result="effect2_dropShadow_42_146"/>
<feBlend mode="normal" in="SourceGraphic" in2="effect2_dropShadow_42_146" result="shape"/>
</filter>
<linearGradient id="paint0_linear_42_146" x1="75.7789" y1="75.8334" x2="40.4732" y2="104.53" gradientUnits="userSpaceOnUse">
<stop stop-color="#11B5E4"/>
<stop offset="1" stop-color="#035B81"/>
</linearGradient>
<linearGradient id="paint1_linear_42_146" x1="67.8761" y1="63.2606" x2="99.0892" y2="99.4933" gradientUnits="userSpaceOnUse">
<stop stop-color="white" stop-opacity="0.25"/>
<stop offset="1" stop-color="white" stop-opacity="0"/>
</linearGradient>
<linearGradient id="paint2_linear_42_146" x1="64.5447" y1="88.7185" x2="77.4079" y2="113.486" gradientUnits="userSpaceOnUse">
<stop stop-color="white"/>
<stop offset="1" stop-color="white" stop-opacity="0.2"/>
</linearGradient>
<linearGradient id="paint3_linear_42_146" x1="74.8957" y1="70.8425" x2="93.4913" y2="90.8041" gradientUnits="userSpaceOnUse">
<stop stop-color="white" stop-opacity="0.25"/>
<stop offset="1" stop-color="white" stop-opacity="0"/>
</linearGradient>
</defs>
</svg>
