<svg width="51" height="50" viewBox="0 0 51 50" fill="none" xmlns="http://www.w3.org/2000/svg">
<circle cx="25.9473" cy="25" r="25" fill="#EDFFFC"/>
<path d="M39.6973 13.7626C38.5002 14.6069 37.1749 15.2527 35.7723 15.6751C35.0194 14.8095 34.0189 14.1959 32.9061 13.9175C31.7932 13.639 30.6216 13.7091 29.5499 14.1181C28.4781 14.5272 27.5578 15.2556 26.9135 16.2047C26.2692 17.1539 25.9319 18.278 25.9473 19.4251V20.6751C23.7506 20.732 21.5739 20.2448 19.611 19.2569C17.6482 18.2689 15.9602 16.8109 14.6973 15.0126C14.6973 15.0126 9.69727 26.2626 20.9473 31.2626C18.3729 33.01 15.3062 33.8862 12.1973 33.7626C23.4473 40.0126 37.1973 33.7626 37.1973 19.3876C37.1961 19.0394 37.1626 18.6921 37.0973 18.3501C38.373 17.0919 39.2733 15.5035 39.6973 13.7626V13.7626Z" stroke="#02897A" stroke-width="2" stroke-linecap="round" stroke-linejoin="round"/>
</svg>
